Coordinates
version=1
nRows=21
nColumns=33
inDegrees=yes

Units are S.I. units (second, meters, Newtons, ...)
Angles are in degrees.

endheader
time	ground_thorax_rot_x	ground_thorax_rot_y	ground_thorax_rot_z	ground_thorax_tx	ground_thorax_ty	ground_thorax_tz	clav_prot_r	clav_elev_r	scapula_abduction_r	scapula_elevation_r	scapula_upward_rot_r	scapula_winging_r	shoulder_elv_r	plane_of_elev_r	axial_rot_r	elbow_flexion_r	pro_sup_r	wrist_flex_r	wrist_dev_r	clav_prot_l	clav_elev_l	scapula_abduction_l	scapula_elevation_l	scapula_upward_rot_l	scapula_winging_l	shoulder_elv_l	plane_of_elev_l	axial_rot_l	elbow_flexion_l	pro_sup_l	wrist_flex_l	wrist_dev_l
      2.41000000	    -39.61452900	    -12.55030866	      6.61436433	   -117.11283616	    793.08273417	     -0.40937145	      1.21332984	    -45.00000000	     45.00000000	    -45.00000000	      7.64851126	  -2272.38885773	  -2455.50257449	     19.42060732	   -179.99999979	   2524.62564767	    -70.27976000	     16.94308257	      9.73649083	     18.32340427	     39.87120590	    -40.75793288	    -45.00000000	    -45.00000000	   1877.30440987	  -1179.49446561	    135.42980183	   -179.99999979	   1445.64197127	    380.34250788	     11.28296517	    -19.32030277
      2.42000000	    -39.49370690	    -13.92047551	      8.31549996	   -122.56883662	    794.06611435	     -0.96890914	      2.95783725	    -45.00000000	     42.09410125	    -45.00000000	     -0.04863241	  -2270.22268433	  -2456.08506574	     19.93425617	   -179.99999979	   2524.21198414	    -66.88063568	     17.54015334	      9.18781971	     17.56033067	     39.68349310	    -39.49925467	    -45.00000000	    -45.00000000	   1877.01246182	  -1179.52502349	    136.33286586	   -179.99999979	   1445.57753390	    381.09120292	     11.99344439	    -19.63944789
      2.43000000	    -39.64998967	    -13.19457928	      7.36197418	   -128.08670140	    795.21381590	     -1.52189210	      1.93333993	    -45.00000000	     43.17546565	    -45.00000000	      2.39453552	  -2271.21284542	  -2455.40060171	     19.60548002	   -179.99999979	   2524.38886418	    -66.83085600	     17.33562031	      9.32153772	     17.51709944	     39.75510669	    -39.53289959	    -45.00000000	    -45.00000000	   1877.46644865	  -1179.47511466	    136.06818462	   -179.99999979	   1445.83162004	    383.08654628	     11.55366689	    -19.78427613
      2.44000000	    -39.66282488	    -14.13955801	      8.68680521	   -133.64072686	    796.53428091	     -2.06447303	      3.21430997	    -45.00000000	     40.08289032	    -45.00000000	     -4.49855351	  -2269.07407601	  -2455.70032651	     20.09164163	   -179.99999979	   2524.06621237	    -65.16163380	     17.74091870	      8.93384247	     17.10283654	     39.51739385	    -38.58698665	    -45.00000000	    -45.00000000	   1877.53537705	  -1179.41217636	    136.62648771	   -179.99999979	   1445.80050882	    384.76335665	     12.01355831	    -20.19371660
      2.45000000	    -39.74678751	    -13.56849217	      7.99455309	   -139.20061874	    798.02920782	     -2.59363805	      2.32675379	    -45.00000000	     40.59132397	    -45.00000000	     -3.00882847	  -2269.79024910	  -2455.16567587	     19.98178677	   -179.99999979	   2524.27554320	    -65.36810577	     17.62659683	      9.08870833	     17.10877655	     39.44222799	    -38.49933815	    -45.00000000	    -45.00000000	   1877.81126123	  -1179.41452266	    136.52152078	   -179.99999979	   1446.00516067	    386.60336390	     11.70843553	    -20.39563434
      2.46000000	    -39.80588405	    -13.85168229	      8.49637386	   -144.73381290	    799.69739682	     -3.10590261	      3.43295145	    -45.00000000	     39.38995441	    -45.00000000	     -6.05899716	  -2269.37448146	  -2455.14885699	     20.40959178	   -179.99999979	   2524.17102527	    -64.81887820	     17.82273006	      8.95951980	     17.06983342	     39.01680420	    -38.02536646	    -45.00000000	    -45.00000000	   1877.75456335	  -1179.35584477	    137.19968196	   -179.99999979	   1446.20292895	    388.31597623	     11.91028312	    -20.84586384
      2.47000000	    -39.88788013	    -13.55363629	      8.10798931	   -150.21330927	    801.53465759	     -3.59825343	      2.75988303	    -45.00000000	     39.21611707	    -45.00000000	     -6.28861384	  -2269.27526096	  -2454.76465371	     20.27152287	   -179.99999979	   2524.17781842	    -64.67809001	     17.83187696	      8.98017201	     16.98143200	     39.02874669	    -37.69314551	    -45.00000000	    -45.00000000	   1878.14620442	  -1179.35937642	    136.97524888	   -179.99999979	   1446.30803445	    389.92959327	     11.75328041	    -21.08706800
      2.48000000	    -39.96005926	    -13.37398521	      7.94774949	   -155.61042966	    803.53192012	     -4.07373490	      2.65672273	    -45.00000000	     38.60902318	    -45.00000000	     -7.19468214	  -2269.06947004	  -2454.47408564	     20.34920326	   -179.99999979	   2524.27794163	    -64.40291374	     17.96196708	      8.97539591	     16.72942072	     39.12407838	    -37.24336193	    -45.00000000	    -45.00000000	   1878.32515580	  -1179.24770926	    137.00465648	   -179.99999979	   1446.41629911	    391.47491913	     11.76932865	    -21.42941220
      2.49000000	    -40.01640212	    -13.23560570	      7.88521506	   -160.90283083	    805.68518304	     -4.52623671	      2.81962909	    -45.00000000	     38.18365207	    -45.00000000	     -8.33571419	  -2268.95589954	  -2454.24125026	     20.43526812	   -179.99999979	   2524.23816827	    -64.06987958	     18.07807250	      8.93647784	     16.59007204	     38.97306644	    -36.89955207	    -45.00000000	    -45.00000000	   1878.44093626	  -1179.19757034	    137.24593915	   -179.99999979	   1446.60257206	    393.01143796	     11.78763194	    -21.80690682
      2.50000000	    -40.09322729	    -13.11247054	      7.92619375	   -166.06948992	    807.98989193	     -4.94992971	      3.16791837	    -45.00000000	     37.69149906	    -45.00000000	     -9.61919316	  -2268.89454661	  -2454.04746777	     20.60232780	   -179.99999979	   2524.18597012	    -63.68227990	     18.23992790	      8.87364501	     16.47587921	     38.76209250	    -36.62951875	    -45.00000000	    -45.00000000	   1878.58231616	  -1179.13742201	    137.58081301	   -179.99999979	   1446.80865208	    394.60083755	     11.79740842	    -22.20767643
      2.51000000	    -40.16240231	    -12.82338299	      7.73349540	   -171.09094261	    810.44355567	     -5.33252053	      3.11140438	    -45.00000000	     37.23458097	    -45.00000000	    -10.34916753	  -2268.80174060	  -2453.77966774	     20.68379696	   -179.99999979	   2524.21942005	    -63.41660693	     18.38320584	      8.85054496	     16.28895627	     38.73340948	    -36.30535240	    -45.00000000	    -45.00000000	   1878.77563870	  -1179.04602469	    137.62153781	   -179.99999979	   1446.97515754	    396.15723837	     11.79786511	    -22.58771838
      2.52000000	    -40.22870619	    -12.53711458	      7.51565351	   -175.94886774	    813.03640801	     -5.67288392	      3.18760263	    -45.00000000	     37.02651410	    -45.00000000	    -10.82633405	  -2268.84759424	  -2453.55243168	     20.75910385	   -179.99999979	   2524.22008316	    -63.16704343	     18.52330221	      8.82089018	     16.12560809	     38.65226896	    -36.04842179	    -45.00000000	    -45.00000000	   1878.93372466	  -1178.99211363	    137.79774979	   -179.99999979	   1447.17361847	    397.71756725	     11.77258531	    -22.96848627
      2.53000000	    -40.28066759	    -12.23003086	      7.32859514	   -180.62729209	    815.75767762	     -5.96608764	      3.31895853	    -45.00000000	     36.72290853	    -45.00000000	    -11.47188672	  -2268.83514461	  -2453.35953911	     20.87588941	   -179.99999979	   2524.24123064	    -62.93941495	     18.69719932	      8.77515358	     15.94722609	     38.52683168	    -35.78202951	    -45.00000000	    -45.00000000	   1879.10693537	  -1178.93778463	    137.90339613	   -179.99999979	   1447.35632558	    399.27261817	     11.75580833	    -23.34799787
      2.54000000	    -40.33870475	    -11.88468712	      7.09581848	   -185.11216457	    818.58866640	     -6.21835559	      3.48352533	    -45.00000000	     36.56645671	    -45.00000000	    -11.88934550	  -2268.91174332	  -2453.18505260	     20.97737291	   -179.99999979	   2524.25291109	    -62.78020717	     18.87422426	      8.72538568	     15.81016862	     38.43003905	    -35.54614341	    -45.00000000	    -45.00000000	   1879.27509982	  -1178.87450132	    138.01237274	   -179.99999979	   1447.56494235	    400.86090160	     11.70584172	    -23.72306899
      2.55000000	    -40.37847430	    -11.52146032	      6.79433423	   -189.38556709	    821.50303650	     -6.43629589	      3.42957030	    -45.00000000	     36.48752728	    -45.00000000	    -11.93499323	  -2269.01565133	  -2452.93505870	     21.05779616	   -179.99999979	   2524.31680616	    -62.71765205	     19.01165704	      8.71490983	     15.65059368	     38.36512115	    -35.27105545	    -45.00000000	    -45.00000000	   1879.42615556	  -1178.74805613	    138.08608806	   -179.99999979	   1447.72595434	    402.34847531	     11.61955875	    -24.03453704
      2.56000000	    -40.41224857	    -11.09910963	      6.56610699	   -193.43975269	    824.47493867	     -6.63277788	      3.42666357	    -45.00000000	     36.37569949	    -45.00000000	    -11.97454656	  -2269.12639569	  -2452.71436661	     21.11398641	   -179.99999979	   2524.40779359	    -62.73627842	     19.17327121	      8.69562852	     15.41536698	     38.32872967	    -35.04011258	    -45.00000000	    -45.00000000	   1879.59015339	  -1178.65168475	    138.05720308	   -179.99999979	   1447.88160316	    403.70535927	     11.56617882	    -24.36840349
      2.57000000	    -40.46959196	    -10.69211006	      6.28696742	   -197.24820961	    827.46971490	     -6.80983871	      3.38162085	    -45.00000000	     36.36181193	    -45.00000000	    -11.73842384	  -2269.30827771	  -2452.48998244	     21.18314222	   -179.99999979	   2524.51974039	    -62.75076885	     19.32822328	      8.68412445	     15.29938037	     38.30802483	    -34.82388276	    -45.00000000	    -45.00000000	   1879.69907957	  -1178.52365508	    138.17030631	   -179.99999979	   1448.05165946	    404.95314656	     11.48333823	    -24.65131293
      2.58000000	    -40.49968319	    -10.35217190	      6.10045473	   -200.80314642	    830.46584197	     -6.96759186	      3.51531443	    -45.00000000	     36.24585379	    -45.00000000	    -12.02403988	  -2269.40106537	  -2452.36613384	     21.28285510	   -179.99999979	   2524.45050187	    -62.89100938	     19.49146842	      8.60788252	     15.18470260	     38.14043150	    -34.64093867	    -45.00000000	    -45.00000000	   1879.84803542	  -1178.47963378	    138.31966175	   -179.99999979	   1448.23023267	    406.12604830	     11.42301481	    -24.97930888
      2.59000000	    -40.51528798	     -9.96198107	      5.86439272	   -204.08916232	    833.43676124	     -7.10423320	      3.47351713	    -45.00000000	     36.23318017	    -45.00000000	    -11.93116310	  -2269.50546936	  -2452.15411896	     21.34954887	   -179.99999979	   2524.52356930	    -63.20018953	     19.63529863	      8.59460004	     15.09212335	     38.17674466	    -34.47053845	    -45.00000000	    -45.00000000	   1879.96603766	  -1178.41107502	    138.41073019	   -179.99999979	   1448.41199450	    407.18679560	     11.35638973	    -24.99999983
      2.60000000	    -40.53457496	     -9.56244208	      5.64909096	   -207.09741345	    836.35919139	     -7.21694147	      3.51920835	    -45.00000000	     36.28654501	    -45.00000000	    -11.80899490	  -2269.64905033	  -2451.99096296	     21.40848291	   -179.99999979	   2524.54459581	    -63.65344291	     19.76941795	      8.57913620	     15.02556554	     38.11324360	    -34.30992430	    -45.00000000	    -45.00000000	   1880.09726852	  -1178.32664813	    138.48790294	   -179.99999979	   1448.58683662	    408.07434203	     11.29453938	    -24.99999983
      2.61000000	    -40.55190165	     -9.20207536	      5.45220667	   -209.82426475	    839.21465956	     -7.30372871	      3.47273150	    -45.00000000	     36.29112153	    -45.00000000	    -11.63533408	  -2269.73729914	  -2451.78334442	     21.46566138	   -179.99999979	   2524.60587313	    -64.26563923	     19.88830813	      8.58879962	     14.90347217	     38.14345004	    -34.21746910	    -45.00000000	    -45.00000000	   1880.24716692	  -1178.30219414	    138.59672437	   -179.99999979	   1448.70836195	    408.77039967	     11.26722869	    -24.99999983
